name C:/MyDriveSym/Projects/mobilecap/Data\Session20210813_0002\mocap\ForceDataProcessed\walkingTS2_forces.mot
datacolumns 19
datarows 22
range 0.42700000 0.43750000
endheader 
time	R_ground_force_vx	R_ground_force_vy	R_ground_force_vz	R_ground_force_px	R_ground_force_py	R_ground_force_pz	R_ground_torque_x	R_ground_torque_y	R_ground_torque_z	L_ground_force_vx	L_ground_force_vy	L_ground_force_vz	L_ground_force_px	L_ground_force_py	L_ground_force_pz	L_ground_torque_x	L_ground_torque_y	L_ground_torque_z	
          0.42700000	         -2.53822500	        760.92985600	        -16.56850800	          0.28359600	          0.00600000	         -0.19420300	          0.00000000	         -3.81327300	          0.00000000	          0.00000000	          0.00000000	          0.00000000	          0.75484900	          0.00000000	         -0.25149900	          0.00000000	          0.00000000	          0.00000000	
          0.42750000	         -2.40625100	        760.98458500	        -16.63907000	          0.28373300	          0.00600000	         -0.19415100	          0.00000000	         -3.81186000	          0.00000000	          0.00000000	          0.00000000	          0.00000000	          0.75484900	          0.00000000	         -0.25149900	          0.00000000	          0.00000000	          0.00000000	
          0.42800000	         -2.27439600	        761.03835500	        -16.70954100	          0.28387000	          0.00600000	         -0.19410000	          0.00000000	         -3.81043800	          0.00000000	          0.00000000	          0.00000000	          0.00000000	          0.75484900	          0.00000000	         -0.25149900	          0.00000000	          0.00000000	          0.00000000	
          0.42850000	         -2.14265500	        761.09118300	        -16.77991500	          0.28400700	          0.00600000	         -0.19404800	          0.00000000	         -3.80900700	          0.00000000	          0.00000000	          0.00000000	          0.00000000	          0.75484900	          0.00000000	         -0.25149900	          0.00000000	          0.00000000	          0.00000000	
          0.42900000	         -2.01102700	        761.14308500	        -16.85018900	          0.28414400	          0.00600000	         -0.19399600	          0.00000000	         -3.80756800	          0.00000000	          0.00000000	          0.00000000	          0.00000000	          0.75484900	          0.00000000	         -0.25149900	          0.00000000	          0.00000000	          0.00000000	
          0.42950000	         -1.87950700	        761.19407900	        -16.92035800	          0.28428200	          0.00600000	         -0.19394500	          0.00000000	         -3.80612100	          0.00000000	          0.00000000	          0.00000000	          0.00000000	          0.75484900	          0.00000000	         -0.25149900	          0.00000000	          0.00000000	          0.00000000	
          0.43000000	         -1.74809200	        761.24417900	        -16.99041500	          0.28442000	          0.00600000	         -0.19389300	          0.00000000	         -3.80466600	          0.00000000	          0.00000000	          0.00000000	          0.00000000	          0.75484900	          0.00000000	         -0.25149900	          0.00000000	          0.00000000	          0.00000000	
          0.43050000	         -1.61677800	        761.29340400	        -17.06035800	          0.28455900	          0.00600000	         -0.19384200	          0.00000000	         -3.80320400	          0.00000000	          0.00000000	          0.00000000	          0.00000000	          0.75484900	          0.00000000	         -0.25149900	          0.00000000	          0.00000000	          0.00000000	
          0.43100000	         -1.48556300	        761.34176800	        -17.13018000	          0.28469700	          0.00600000	         -0.19379100	          0.00000000	         -3.80173600	          0.00000000	          0.00000000	          0.00000000	          0.00000000	          0.75484900	          0.00000000	         -0.25149900	          0.00000000	          0.00000000	          0.00000000	
          0.43150000	         -1.35444100	        761.38928900	        -17.19987800	          0.28483600	          0.00600000	         -0.19374000	          0.00000000	         -3.80026100	          0.00000000	          0.00000000	          0.00000000	          0.00000000	          0.75484900	          0.00000000	         -0.25149900	          0.00000000	          0.00000000	          0.00000000	
          0.43200000	         -1.22341100	        761.43598300	        -17.26944600	          0.28497500	          0.00600000	         -0.19368900	          0.00000000	         -3.79878000	          0.00000000	          0.00000000	          0.00000000	          0.00000000	          0.75484900	          0.00000000	         -0.25149900	          0.00000000	          0.00000000	          0.00000000	
          0.43250000	         -1.09246700	        761.48186700	        -17.33888000	          0.28511400	          0.00600000	         -0.19363800	          0.00000000	         -3.79729400	          0.00000000	          0.00000000	          0.00000000	          0.00000000	          0.75484900	          0.00000000	         -0.25149900	          0.00000000	          0.00000000	          0.00000000	
          0.43300000	         -0.96160600	        761.52695600	        -17.40817600	          0.28525400	          0.00600000	         -0.19358700	          0.00000000	         -3.79580400	          0.00000000	          0.00000000	          0.00000000	          0.00000000	          0.75484900	          0.00000000	         -0.25149900	          0.00000000	          0.00000000	          0.00000000	
          0.43350000	         -0.83082300	        761.57126800	        -17.47732900	          0.28539400	          0.00600000	         -0.19353600	          0.00000000	         -3.79430800	          0.00000000	          0.00000000	          0.00000000	          0.00000000	          0.75484900	          0.00000000	         -0.25149900	          0.00000000	          0.00000000	          0.00000000	
          0.43400000	         -0.70011600	        761.61481800	        -17.54633500	          0.28553400	          0.00600000	         -0.19348500	          0.00000000	         -3.79280900	          0.00000000	          0.00000000	          0.00000000	          0.00000000	          0.75484900	          0.00000000	         -0.25149900	          0.00000000	          0.00000000	          0.00000000	
          0.43450000	         -0.56947900	        761.65762400	        -17.61518800	          0.28567500	          0.00600000	         -0.19343500	          0.00000000	         -3.79130600	          0.00000000	          0.00000000	          0.00000000	          0.00000000	          0.75484900	          0.00000000	         -0.25149900	          0.00000000	          0.00000000	          0.00000000	
          0.43500000	         -0.43890800	        761.69970200	        -17.68388500	          0.28581500	          0.00600000	         -0.19338400	          0.00000000	         -3.78980000	          0.00000000	          0.00000000	          0.00000000	          0.00000000	          0.75484900	          0.00000000	         -0.25149900	          0.00000000	          0.00000000	          0.00000000	
          0.43550000	         -0.30840000	        761.74106900	        -17.75242200	          0.28595600	          0.00600000	         -0.19333400	          0.00000000	         -3.78829100	          0.00000000	          0.00000000	          0.00000000	          0.00000000	          0.75484900	          0.00000000	         -0.25149900	          0.00000000	          0.00000000	          0.00000000	
          0.43600000	         -0.17794900	        761.78174100	        -17.82079300	          0.28609800	          0.00600000	         -0.19328400	          0.00000000	         -3.78678000	          0.00000000	          0.00000000	          0.00000000	          0.00000000	          0.75484900	          0.00000000	         -0.25149900	          0.00000000	          0.00000000	          0.00000000	
          0.43650000	         -0.04755200	        761.82173400	        -17.88899500	          0.28623900	          0.00600000	         -0.19323400	          0.00000000	         -3.78526800	          0.00000000	          0.00000000	          0.00000000	          0.00000000	          0.75484900	          0.00000000	         -0.25149900	          0.00000000	          0.00000000	          0.00000000	
          0.43700000	          0.08279600	        761.86106600	        -17.95702400	          0.28638100	          0.00600000	         -0.19318400	          0.00000000	         -3.78375400	          0.00000000	          0.00000000	          0.00000000	          0.00000000	          0.75484900	          0.00000000	         -0.25149900	          0.00000000	          0.00000000	          0.00000000	
          0.43750000	          0.21310000	        761.89975300	        -18.02487500	          0.28652300	          0.00600000	         -0.19313400	          0.00000000	         -3.78223900	          0.00000000	          0.00000000	          0.00000000	          0.00000000	          0.75484900	          0.00000000	         -0.25149900	          0.00000000	          0.00000000	          0.00000000	
